<?xml version="1.0" standalone="no"?>
<!DOCTYPE svg PUBLIC "-//W3C//DTD SVG 20010904//EN"
        "http://www.w3.org/TR/2001/REC-SVG-20010904/DTD/svg10.dtd">
<svg version="1.0" xmlns="http://www.w3.org/2000/svg"
     width="100.000000pt" height="100.000000pt" viewBox="0 0 100.000000 100.000000"
     preserveAspectRatio="xMidYMid meet">
  <metadata>
    Created by potrace 1.16, written by Peter Selinger 2001-2019
  </metadata>
  <g transform="translate(0.000000,100.000000) scale(0.100000,-0.100000)"
     fill="#000000" stroke="none">
    <path d="M67 833 c-4 -3 -7 -48 -7 -100 l0 -93 -30 0 -30 0 0 -90 0 -90 30 0
c27 0 30 -3 30 -30 0 -23 -4 -30 -20 -30 -18 0 -20 -7 -20 -80 0 -73 2 -80 19
-80 16 0 20 -8 23 -37 l3 -38 448 -3 447 -2 0 23 c0 13 9 32 20 42 19 17 20
31 20 215 0 184 -1 198 -20 215 -16 14 -20 31 -20 80 0 51 -4 65 -23 83 -23
22 -26 22 -443 22 -232 0 -424 -3 -427 -7z m835 -50 c14 -12 18 -31 18 -78 0
-49 4 -66 20 -80 18 -17 20 -31 20 -185 0 -154 -2 -168 -20 -185 -11 -10 -20
-26 -20 -37 0 -17 -18 -18 -410 -18 -403 0 -410 0 -410 20 0 17 7 20 50 20
l50 0 0 80 0 80 -50 0 c-49 0 -50 1 -50 30 0 29 1 30 50 30 l50 0 0 90 0 90
-50 0 -50 0 0 80 0 80 392 0 c350 0 393 -2 410 -17z"/>
    <path d="M497 663 c-23 -27 -22 -85 3 -108 15 -13 29 -16 62 -11 53 8 63 8
116 0 56 -8 82 13 82 66 0 53 -26 74 -82 66 -52 -7 -61 -7 -118 0 -37 5 -49 2
-63 -13z"/>
    <path d="M440 430 l0 -70 240 0 240 0 0 70 0 70 -240 0 -240 0 0 -70z m440 0
l0 -30 -200 0 -200 0 0 30 0 30 200 0 200 0 0 -30z"/>
  </g>
</svg>
