<?xml version="1.0" encoding="UTF-8"?>
<svg xmlns:xlink="http://www.w3.org/1999/xlink" width="72px" height="72px" viewBox="0 0 72 72" version="1.1"
     xmlns="http://www.w3.org/2000/svg">
  <!-- Generator: Sketch 52.4 (67378) - http://www.bohemiancoding.com/sketch -->
  <title>Group 4 Copy</title>
  <desc>Created with Sketch.</desc>
  <g id="自助装机" stroke="none" stroke-width="1" fill="none" fill-rule="evenodd">
    <g id="icon" transform="translate(-358.000000, -143.000000)">
      <rect fill="#FFFFFF" x="0" y="0" width="1024" height="561"></rect>
      <g id="Group-4-Copy" transform="translate(359.000000, 144.000000)">
        <rect id="Rectangle-10" fill="#FFFFFF" x="0" y="0" width="70" height="70"></rect>
        <g id="CPU-" transform="translate(15.000000, 15.000000)" stroke="#93A1C1">
          <rect id="Rectangle-38" stroke-width="2" x="5" y="5" width="30" height="30" rx="1"></rect>
          <path d="M36.5,11.5 L36.5,12.5 L39,12.5 C39.2761424,12.5 39.5,12.2761424 39.5,12 C39.5,11.7238576 39.2761424,11.5 39,11.5 L36.5,11.5 Z"
                id="Rectangle-41" fill="#93A1C1"></path>
          <path d="M3.5,12.5 L3.5,11.5 L1,11.5 C0.723857625,11.5 0.5,11.7238576 0.5,12 C0.5,12.2761424 0.723857625,12.5 1,12.5 L3.5,12.5 Z"
                id="Rectangle-41-Copy-4" fill="#93A1C1"></path>
          <path d="M3.5,17.8333333 L3.5,16.8333333 L1,16.8333333 C0.723857625,16.8333333 0.5,17.057191 0.5,17.3333333 C0.5,17.6094757 0.723857625,17.8333333 1,17.8333333 L3.5,17.8333333 Z"
                id="Rectangle-41-Copy-5" fill="#93A1C1"></path>
          <path d="M3.5,23.1666667 L3.5,22.1666667 L1,22.1666667 C0.723857625,22.1666667 0.5,22.3905243 0.5,22.6666667 C0.5,22.942809 0.723857625,23.1666667 1,23.1666667 L3.5,23.1666667 Z"
                id="Rectangle-41-Copy-6" fill="#93A1C1"></path>
          <path d="M3.5,28.5 L3.5,27.5 L1,27.5 C0.723857625,27.5 0.5,27.7238576 0.5,28 C0.5,28.2761424 0.723857625,28.5 1,28.5 L3.5,28.5 Z"
                id="Rectangle-41-Copy-7" fill="#93A1C1"></path>
          <path d="M36.5,16.8333333 L36.5,17.8333333 L39,17.8333333 C39.2761424,17.8333333 39.5,17.6094757 39.5,17.3333333 C39.5,17.057191 39.2761424,16.8333333 39,16.8333333 L36.5,16.8333333 Z"
                id="Rectangle-41-Copy" fill="#93A1C1"></path>
          <path d="M36.5,22.1666667 L36.5,23.1666667 L39,23.1666667 C39.2761424,23.1666667 39.5,22.942809 39.5,22.6666667 C39.5,22.3905243 39.2761424,22.1666667 39,22.1666667 L36.5,22.1666667 Z"
                id="Rectangle-41-Copy-2" fill="#93A1C1"></path>
          <path d="M36.5,27.5 L36.5,28.5 L39,28.5 C39.2761424,28.5 39.5,28.2761424 39.5,28 C39.5,27.7238576 39.2761424,27.5 39,27.5 L36.5,27.5 Z"
                id="Rectangle-41-Copy-3" fill="#93A1C1"></path>
          <rect id="Rectangle-39" stroke-width="2" x="11" y="12" width="7" height="16" rx="1"></rect>
          <rect id="Rectangle-39-Copy" stroke-width="2" x="23" y="12" width="6" height="6" rx="1"></rect>
          <rect id="Rectangle-39-Copy-2" stroke-width="2" x="23" y="23" width="6" height="5" rx="1"></rect>
          <path d="M11.5,3.5 L12.5,3.5 L12.5,1 C12.5,0.723857625 12.2761424,0.5 12,0.5 C11.7238576,0.5 11.5,0.723857625 11.5,1 L11.5,3.5 Z"
                id="Rectangle-40" fill="#93A1C1"></path>
          <path d="M11.5,36.5 L11.5,39 C11.5,39.2761424 11.7238576,39.5 12,39.5 C12.2761424,39.5 12.5,39.2761424 12.5,39 L12.5,36.5 L11.5,36.5 Z"
                id="Rectangle-40-Copy-4" fill="#93A1C1"></path>
          <path d="M17.1666667,36.5 L17.1666667,39 C17.1666667,39.2761424 17.3905243,39.5 17.6666667,39.5 C17.942809,39.5 18.1666667,39.2761424 18.1666667,39 L18.1666667,36.5 L17.1666667,36.5 Z"
                id="Rectangle-40-Copy-7" fill="#93A1C1"></path>
          <path d="M28.5,36.5 L28.5,39 C28.5,39.2761424 28.7238576,39.5 29,39.5 C29.2761424,39.5 29.5,39.2761424 29.5,39 L29.5,36.5 L28.5,36.5 Z"
                id="Rectangle-40-Copy-8" fill="#93A1C1"></path>
          <path d="M22.8333333,36.5 L22.8333333,39 C22.8333333,39.2761424 23.057191,39.5 23.3333333,39.5 C23.6094757,39.5 23.8333333,39.2761424 23.8333333,39 L23.8333333,36.5 L22.8333333,36.5 Z"
                id="Rectangle-40-Copy-9" fill="#93A1C1"></path>
          <path d="M16.8333333,3.5 L17.8333333,3.5 L17.8333333,1 C17.8333333,0.723857625 17.6094757,0.5 17.3333333,0.5 C17.057191,0.5 16.8333333,0.723857625 16.8333333,1 L16.8333333,3.5 Z"
                id="Rectangle-40-Copy" fill="#93A1C1"></path>
          <path d="M22.1666667,3.5 L23.1666667,3.5 L23.1666667,1 C23.1666667,0.723857625 22.942809,0.5 22.6666667,0.5 C22.3905243,0.5 22.1666667,0.723857625 22.1666667,1 L22.1666667,3.5 Z"
                id="Rectangle-40-Copy-2" fill="#93A1C1"></path>
          <path d="M27.5,3.5 L28.5,3.5 L28.5,1 C28.5,0.723857625 28.2761424,0.5 28,0.5 C27.7238576,0.5 27.5,0.723857625 27.5,1 L27.5,3.5 Z"
                id="Rectangle-40-Copy-3" fill="#93A1C1"></path>
        </g>
      </g>
    </g>
  </g>
</svg>