<?xml version="1.0" standalone="no"?>
<!DOCTYPE svg PUBLIC "-//W3C//DTD SVG 20010904//EN"
        "http://www.w3.org/TR/2001/REC-SVG-20010904/DTD/svg10.dtd">
<svg version="1.0" xmlns="http://www.w3.org/2000/svg"
     width="100.000000pt" height="100.000000pt" viewBox="0 0 100.000000 100.000000"
     preserveAspectRatio="xMidYMid meet">

  <g transform="translate(0.000000,100.000000) scale(0.100000,-0.100000)"
     fill="#000000" stroke="none">
    <path d="M247 974 c-4 -4 -7 -22 -7 -41 0 -27 4 -33 21 -33 17 0 20 5 17 37
-3 35 -17 51 -31 37z"/>
    <path d="M407 974 c-4 -4 -7 -22 -7 -41 0 -27 4 -33 21 -33 17 0 20 5 17 37
-3 35 -17 51 -31 37z"/>
    <path d="M567 974 c-4 -4 -7 -22 -7 -41 0 -27 4 -33 21 -33 17 0 20 5 17 37
-3 35 -17 51 -31 37z"/>
    <path d="M727 974 c-4 -4 -7 -22 -7 -41 0 -27 4 -33 21 -33 17 0 20 5 17 37
-3 35 -17 51 -31 37z"/>
    <path d="M140 860 c-19 -19 -20 -33 -20 -360 0 -327 1 -341 20 -360 19 -19 33
-20 360 -20 327 0 341 1 360 20 19 19 20 33 20 360 0 327 -1 341 -20 360 -19
19 -33 20 -360 20 -327 0 -341 -1 -360 -20z m695 -360 l0 -335 -335 0 -335 0
-3 325 c-1 179 0 331 3 338 3 10 75 12 337 10 l333 -3 0 -335z"/>
    <path d="M230 765 c-26 -32 13 -81 48 -59 34 22 22 74 -18 74 -10 0 -23 -7
-30 -15z"/>
    <path d="M710 285 c-26 -32 13 -81 48 -59 22 14 27 41 12 59 -16 19 -44 19
-60 0z"/>
    <path d="M25 750 c-11 -18 5 -30 41 -30 27 0 34 4 34 20 0 16 -7 20 -34 20
-19 0 -38 -4 -41 -10z"/>
    <path d="M900 740 c0 -18 5 -21 38 -18 25 2 37 8 37 18 0 10 -12 16 -37 18
-33 3 -38 0 -38 -18z"/>
    <path d="M25 590 c-11 -18 5 -30 41 -30 27 0 34 4 34 20 0 16 -7 20 -34 20
-19 0 -38 -4 -41 -10z"/>
    <path d="M900 580 c0 -18 5 -21 38 -18 25 2 37 8 37 18 0 10 -12 16 -37 18
-33 3 -38 0 -38 -18z"/>
    <path d="M25 430 c-11 -18 5 -30 41 -30 27 0 34 4 34 20 0 16 -7 20 -34 20
-19 0 -38 -4 -41 -10z"/>
    <path d="M900 420 c0 -18 5 -21 38 -18 25 2 37 8 37 18 0 10 -12 16 -37 18
-33 3 -38 0 -38 -18z"/>
    <path d="M25 270 c-11 -18 5 -30 41 -30 27 0 34 4 34 20 0 16 -7 20 -34 20
-19 0 -38 -4 -41 -10z"/>
    <path d="M900 260 c0 -18 5 -21 38 -18 25 2 37 8 37 18 0 10 -12 16 -37 18
-33 3 -38 0 -38 -18z"/>
    <path d="M242 63 c2 -26 8 -38 18 -38 10 0 16 12 18 38 3 32 0 37 -18 37 -18
0 -21 -5 -18 -37z"/>
    <path d="M402 63 c2 -26 8 -38 18 -38 10 0 16 12 18 38 3 32 0 37 -18 37 -18
0 -21 -5 -18 -37z"/>
    <path d="M562 63 c2 -26 8 -38 18 -38 10 0 16 12 18 38 3 32 0 37 -18 37 -18
0 -21 -5 -18 -37z"/>
    <path d="M722 63 c2 -26 8 -38 18 -38 10 0 16 12 18 38 3 32 0 37 -18 37 -18
0 -21 -5 -18 -37z"/>
  </g>
</svg>
