<?xml version="1.0" standalone="no"?>
<!DOCTYPE svg PUBLIC "-//W3C//DTD SVG 20010904//EN"
        "http://www.w3.org/TR/2001/REC-SVG-20010904/DTD/svg10.dtd">
<svg version="1.0" xmlns="http://www.w3.org/2000/svg"
     width="100.000000pt" height="100.000000pt" viewBox="0 0 100.000000 100.000000"
     preserveAspectRatio="xMidYMid meet">
  <metadata>
    Created by potrace 1.16, written by Peter Selinger 2001-2019
  </metadata>
  <g transform="translate(0.000000,100.000000) scale(0.100000,-0.100000)"
     fill="#000000" stroke="none">
    <path d="M0 900 c0 -13 7 -20 20 -20 11 0 29 -9 40 -20 19 -19 20 -33 20 -400
0 -373 0 -380 20 -380 18 0 20 7 20 60 l0 60 30 0 c28 0 30 -2 30 -40 l0 -40
60 0 60 0 0 40 c0 33 3 40 20 40 17 0 20 -7 20 -40 l0 -40 170 0 170 0 0 40
c0 33 3 40 20 40 17 0 20 -7 20 -40 l0 -40 40 0 c33 0 40 3 40 20 0 13 -7 20
-20 20 -13 0 -20 7 -20 20 0 19 7 20 108 20 71 0 112 4 120 12 17 17 17 559 0
576 -9 9 -120 12 -440 12 l-428 0 0 40 c0 53 -27 80 -80 80 -33 0 -40 -3 -40
-20z m948 -152 c17 -17 17 -479 0 -496 -9 -9 -116 -12 -420 -12 l-408 0 0 260
0 260 408 0 c304 0 411 -3 420 -12z"/>
    <path d="M621 678 c-66 -32 -101 -94 -101 -177 0 -121 77 -201 195 -201 126 0
205 76 205 199 0 81 -31 139 -94 176 -57 33 -142 35 -205 3z"/>
  </g>
</svg>
