<?xml version="1.0" standalone="no"?>
<!DOCTYPE svg PUBLIC "-//W3C//DTD SVG 20010904//EN"
        "http://www.w3.org/TR/2001/REC-SVG-20010904/DTD/svg10.dtd">
<svg version="1.0" xmlns="http://www.w3.org/2000/svg"
     width="100.000000pt" height="100.000000pt" viewBox="0 0 100.000000 100.000000"
     preserveAspectRatio="xMidYMid meet">

  <g transform="translate(0.000000,100.000000) scale(0.100000,-0.100000)"
     fill="#000000" stroke="none">
    <path d="M132 992 c-8 -5 -36 -142 -72 -358 -52 -304 -60 -366 -60 -479 0 -89
4 -135 12 -143 17 -17 959 -17 976 0 8 8 12 53 12 138 0 106 -9 179 -60 479
-37 222 -64 357 -72 362 -17 11 -719 11 -736 1z m762 -324 c26 -161 50 -305
53 -320 l5 -28 -452 0 -452 0 5 28 c3 15 27 159 53 320 l49 292 345 0 345 0
49 -292z m66 -508 l0 -120 -460 0 -460 0 0 120 0 120 460 0 460 0 0 -120z"/>
    <path d="M399 847 c-70 -20 -137 -64 -167 -109 -21 -33 -27 -53 -27 -99 0 -81
37 -132 129 -179 65 -33 75 -35 166 -35 91 0 101 2 166 35 93 47 129 98 129
180 0 81 -37 133 -126 178 -54 28 -80 34 -145 38 -47 2 -97 -1 -125 -9z m239
-57 c93 -40 138 -117 113 -193 -15 -44 -54 -80 -116 -109 -71 -32 -199 -32
-270 0 -91 42 -134 105 -121 177 24 126 236 194 394 125z"/>
    <path d="M456 687 c-43 -32 15 -81 71 -61 54 19 33 74 -27 74 -14 0 -34 -6
-44 -13z"/>
    <path d="M770 185 c-15 -18 -10 -45 13 -59 34 -22 73 27 47 59 -16 19 -44 19
-60 0z"/>
  </g>
</svg>
