<?xml version="1.0" standalone="no"?>
<!DOCTYPE svg PUBLIC "-//W3C//DTD SVG 20010904//EN"
        "http://www.w3.org/TR/2001/REC-SVG-20010904/DTD/svg10.dtd">
<svg version="1.0" xmlns="http://www.w3.org/2000/svg"
     width="100.000000pt" height="100.000000pt" viewBox="0 0 100.000000 100.000000"
     preserveAspectRatio="xMidYMid meet">

  <g transform="translate(0.000000,100.000000) scale(0.100000,-0.100000)"
     fill="#000000" stroke="none">
    <path d="M735 900 c-8 -50 -39 -75 -102 -85 -92 -14 -130 -41 -147 -107 l-6
-28 -216 0 c-215 0 -215 0 -239 -25 l-25 -24 0 -231 0 -231 25 -24 24 -25 451
0 451 0 24 25 25 24 0 231 0 231 -25 24 -24 25 -216 0 -216 0 6 23 c11 38 49
64 105 71 75 10 108 30 131 79 25 55 25 87 0 87 -15 0 -21 -10 -26 -40z m213
-272 c17 -17 17 -439 0 -456 -17 -17 -879 -17 -896 0 -17 17 -17 439 0 456 17
17 879 17 896 0z"/>
    <path d="M100 520 l0 -40 40 0 40 0 0 40 0 40 -40 0 -40 0 0 -40z"/>
    <path d="M220 520 l0 -40 40 0 40 0 0 40 0 40 -40 0 -40 0 0 -40z"/>
    <path d="M340 520 l0 -40 40 0 40 0 0 40 0 40 -40 0 -40 0 0 -40z"/>
    <path d="M460 520 l0 -40 40 0 40 0 0 40 0 40 -40 0 -40 0 0 -40z"/>
    <path d="M580 520 l0 -40 40 0 40 0 0 40 0 40 -40 0 -40 0 0 -40z"/>
    <path d="M700 520 l0 -40 40 0 40 0 0 40 0 40 -40 0 -40 0 0 -40z"/>
    <path d="M820 520 l0 -40 40 0 40 0 0 40 0 40 -40 0 -40 0 0 -40z"/>
    <path d="M100 400 l0 -40 70 0 70 0 0 40 0 40 -70 0 -70 0 0 -40z"/>
    <path d="M280 400 l0 -40 40 0 40 0 0 40 0 40 -40 0 -40 0 0 -40z"/>
    <path d="M400 400 l0 -40 40 0 40 0 0 40 0 40 -40 0 -40 0 0 -40z"/>
    <path d="M520 400 l0 -40 40 0 40 0 0 40 0 40 -40 0 -40 0 0 -40z"/>
    <path d="M640 400 l0 -40 40 0 40 0 0 40 0 40 -40 0 -40 0 0 -40z"/>
    <path d="M760 400 l0 -40 70 0 70 0 0 40 0 40 -70 0 -70 0 0 -40z"/>
    <path d="M100 280 l0 -40 40 0 40 0 0 40 0 40 -40 0 -40 0 0 -40z"/>
    <path d="M220 280 l0 -40 40 0 40 0 0 40 0 40 -40 0 -40 0 0 -40z"/>
    <path d="M340 280 l0 -40 160 0 160 0 0 40 0 40 -160 0 -160 0 0 -40z"/>
    <path d="M700 280 l0 -40 40 0 40 0 0 40 0 40 -40 0 -40 0 0 -40z"/>
    <path d="M820 280 l0 -40 40 0 40 0 0 40 0 40 -40 0 -40 0 0 -40z"/>
  </g>
</svg>
