<?xml version="1.0" standalone="no"?>
<!DOCTYPE svg PUBLIC "-//W3C//DTD SVG 20010904//EN"
        "http://www.w3.org/TR/2001/REC-SVG-20010904/DTD/svg10.dtd">
<svg version="1.0" xmlns="http://www.w3.org/2000/svg"
     width="100.000000pt" height="100.000000pt" viewBox="0 0 100.000000 100.000000"
     preserveAspectRatio="xMidYMid meet">

  <g transform="translate(0.000000,100.000000) scale(0.100000,-0.100000)"
     fill="#000000" stroke="none">
    <path d="M52 888 c-17 -17 -17 -619 0 -636 8 -8 60 -12 170 -12 l158 0 0 -30
c0 -28 -2 -30 -40 -30 -49 0 -80 -27 -80 -70 l0 -30 240 0 240 0 0 30 c0 43
-31 70 -80 70 -38 0 -40 2 -40 30 l0 30 158 0 c110 0 162 4 170 12 17 17 17
619 0 636 -17 17 -879 17 -896 0z m868 -258 l0 -230 -420 0 -420 0 0 230 0
230 420 0 420 0 0 -230z m0 -310 l0 -40 -420 0 -420 0 0 40 0 40 420 0 420 0
0 -40z m-340 -110 l0 -30 -80 0 -80 0 0 30 0 30 80 0 80 0 0 -30z m115 -80 c4
-7 -63 -10 -195 -10 -132 0 -199 3 -195 10 8 13 382 13 390 0z"/>
    <path d="M820 320 c0 -13 7 -20 20 -20 13 0 20 7 20 20 0 13 -7 20 -20 20 -13
0 -20 -7 -20 -20z"/>
  </g>
</svg>
