<?xml version="1.0" standalone="no"?>
<!DOCTYPE svg PUBLIC "-//W3C//DTD SVG 20010904//EN"
        "http://www.w3.org/TR/2001/REC-SVG-20010904/DTD/svg10.dtd">
<svg version="1.0" xmlns="http://www.w3.org/2000/svg"
     width="100.000000pt" height="100.000000pt" viewBox="0 0 100.000000 100.000000"
     preserveAspectRatio="xMidYMid meet">

  <g transform="translate(0.000000,100.000000) scale(0.100000,-0.100000)"
     fill="#000000" stroke="none">
    <path d="M360 900 c0 -19 -7 -20 -120 -20 -175 0 -160 38 -160 -400 0 -347 1
-361 20 -380 19 -19 33 -20 400 -20 367 0 381 1 400 20 19 19 20 33 20 380 0
347 -1 361 -20 380 -15 15 -33 20 -70 20 -43 0 -50 3 -50 20 0 19 -7 20 -130
20 -123 0 -130 -1 -130 -20 0 -13 -7 -20 -20 -20 -13 0 -20 7 -20 20 0 18 -7
20 -60 20 -53 0 -60 -2 -60 -20z m80 -70 c0 -43 -3 -50 -20 -50 -17 0 -20 7
-20 50 0 43 3 50 20 50 17 0 20 -7 20 -50z m300 0 l0 -50 -90 0 -90 0 0 50 0
50 90 0 90 0 0 -50z m-380 -40 l0 -50 60 0 60 0 0 50 c0 43 3 50 20 50 17 0
20 -7 20 -50 l0 -50 130 0 130 0 0 51 0 50 48 -3 47 -3 0 -355 0 -355 -375 0
-375 0 -3 345 c-1 190 0 351 3 357 3 10 36 13 120 13 l115 0 0 -50z"/>
    <path d="M164 789 c-10 -17 13 -36 27 -22 12 12 4 33 -11 33 -5 0 -12 -5 -16
-11z"/>
    <path d="M804 789 c-10 -17 13 -36 27 -22 12 12 4 33 -11 33 -5 0 -12 -5 -16
-11z"/>
    <path d="M220 550 l0 -130 100 0 100 0 0 130 0 130 -100 0 -100 0 0 -130z m80
0 c0 -83 -1 -90 -20 -90 -19 0 -20 7 -20 90 0 83 1 90 20 90 19 0 20 -7 20
-90z m80 0 c0 -83 -1 -90 -20 -90 -19 0 -20 7 -20 90 0 83 1 90 20 90 19 0 20
-7 20 -90z"/>
    <path d="M520 550 l0 -130 130 0 130 0 0 130 0 130 -130 0 -130 0 0 -130z
m220 0 l0 -90 -90 0 -90 0 0 90 0 90 90 0 90 0 0 -90z"/>
    <path d="M600 550 l0 -50 50 0 50 0 0 50 0 50 -50 0 -50 0 0 -50z m60 0 c0 -5
-4 -10 -10 -10 -5 0 -10 5 -10 10 0 6 5 10 10 10 6 0 10 -4 10 -10z"/>
    <path d="M220 320 c0 -19 7 -20 200 -20 193 0 200 1 200 20 0 19 -7 20 -200
20 -193 0 -200 -1 -200 -20z"/>
    <path d="M680 320 c-11 -11 -20 -29 -20 -40 0 -26 34 -60 60 -60 26 0 60 34
60 60 0 11 -9 29 -20 40 -11 11 -29 20 -40 20 -11 0 -29 -9 -40 -20z m56 -31
c10 -17 -13 -36 -27 -22 -12 12 -4 33 11 33 5 0 12 -5 16 -11z"/>
    <path d="M220 240 c0 -19 7 -20 200 -20 193 0 200 1 200 20 0 19 -7 20 -200
20 -193 0 -200 -1 -200 -20z"/>
    <path d="M164 189 c-10 -17 13 -36 27 -22 12 12 4 33 -11 33 -5 0 -12 -5 -16
-11z"/>
    <path d="M804 189 c-10 -17 13 -36 27 -22 12 12 4 33 -11 33 -5 0 -12 -5 -16
-11z"/>
  </g>
</svg>
