<?xml version="1.0" standalone="no"?>
<!DOCTYPE svg PUBLIC "-//W3C//DTD SVG 20010904//EN"
        "http://www.w3.org/TR/2001/REC-SVG-20010904/DTD/svg10.dtd">
<svg version="1.0" xmlns="http://www.w3.org/2000/svg"
     width="100.000000pt" height="100.000000pt" viewBox="0 0 100.000000 100.000000"
     preserveAspectRatio="xMidYMid meet">

  <g transform="translate(0.000000,100.000000) scale(0.100000,-0.100000)"
     fill="#000000" stroke="none">
    <path d="M405 947 c-109 -37 -186 -103 -232 -202 -27 -59 -28 -63 -28 -245 0
-182 0 -186 28 -246 36 -77 104 -145 182 -181 51 -24 73 -28 145 -28 72 0 94
4 145 28 78 36 146 104 182 181 28 60 28 64 28 246 0 182 0 186 -28 246 -57
123 -177 204 -311 211 -41 1 -88 -3 -111 -10z m75 -67 c0 -27 -7 -47 -20 -60
-17 -17 -20 -33 -20 -100 0 -67 3 -83 20 -100 13 -13 20 -33 20 -60 l0 -40
-150 0 -150 0 0 65 c0 152 81 267 223 316 74 26 77 25 77 -21z m170 -3 c109
-54 170 -159 170 -293 l0 -64 -150 0 -150 0 0 40 c0 27 7 47 20 60 17 17 20
33 20 100 0 68 -3 83 -20 97 -14 13 -20 30 -20 61 l0 44 33 -7 c17 -3 61 -20
97 -38z m-135 -158 c0 -59 -3 -74 -15 -74 -11 0 -16 15 -18 64 -3 71 2 95 21
88 8 -2 12 -27 12 -78z m303 -321 c-9 -136 -71 -233 -183 -288 -72 -34 -198
-34 -270 0 -113 55 -175 153 -183 288 l-5 82 323 0 323 0 -5 -82z"/>
  </g>
</svg>
