<?xml version="1.0" standalone="no"?>
<!DOCTYPE svg PUBLIC "-//W3C//DTD SVG 20010904//EN"
        "http://www.w3.org/TR/2001/REC-SVG-20010904/DTD/svg10.dtd">
<svg version="1.0" xmlns="http://www.w3.org/2000/svg"
     width="100.000000pt" height="100.000000pt" viewBox="0 0 100.000000 100.000000"
     preserveAspectRatio="xMidYMid meet">

  <g transform="translate(0.000000,100.000000) scale(0.100000,-0.100000)"
     fill="#000000" stroke="none">
    <path d="M40 861 c0 -17 8 -20 48 -23 l47 -3 3 -347 c2 -340 3 -348 22 -348
17 0 20 7 20 40 l0 40 50 0 50 0 0 40 0 40 100 0 100 0 0 -40 0 -40 240 0 240
0 0 250 0 250 -390 0 -390 0 0 60 c0 79 -19 100 -90 100 -43 0 -50 -3 -50 -19z
m880 -391 l0 -210 -200 0 -200 0 0 28 c0 47 -14 52 -140 52 -126 0 -140 -5
-140 -52 0 -24 -4 -28 -30 -28 l-30 0 0 70 0 70 50 0 50 0 0 100 0 100 -50 0
-50 0 0 40 0 40 370 0 370 0 0 -210z m-680 30 l0 -60 -30 0 -30 0 0 60 0 60
30 0 30 0 0 -60z"/>
    <path d="M620 624 c0 -20 -24 -44 -44 -44 -9 0 -16 -8 -16 -20 0 -13 7 -20 20
-20 13 0 20 -7 20 -20 0 -13 -7 -20 -20 -20 -13 0 -20 -7 -20 -20 0 -13 7 -20
20 -20 13 0 20 -7 20 -20 0 -13 -7 -20 -20 -20 -13 0 -20 -7 -20 -20 0 -12 7
-20 16 -20 20 0 44 -24 44 -44 0 -9 8 -16 20 -16 13 0 20 7 20 20 0 13 7 20
20 20 13 0 20 -7 20 -20 0 -13 7 -20 20 -20 13 0 20 7 20 20 0 13 7 20 20 20
13 0 20 -7 20 -20 0 -13 7 -20 20 -20 12 0 20 7 20 16 0 20 24 44 44 44 9 0
16 8 16 20 0 13 -7 20 -20 20 -13 0 -20 7 -20 20 0 13 7 20 20 20 13 0 20 7
20 20 0 13 -7 20 -20 20 -13 0 -20 7 -20 20 0 13 7 20 20 20 13 0 20 7 20 20
0 12 -7 20 -16 20 -8 0 -22 6 -30 14 -8 8 -14 22 -14 30 0 9 -8 16 -20 16 -13
0 -20 -7 -20 -20 0 -13 -7 -20 -20 -20 -13 0 -20 7 -20 20 0 13 -7 20 -20 20
-13 0 -20 -7 -20 -20 0 -13 -7 -20 -20 -20 -13 0 -20 7 -20 20 0 13 -7 20 -20
20 -12 0 -20 -7 -20 -16z m180 -144 l0 -80 -80 0 -80 0 0 80 0 80 80 0 80 0 0
-80z"/>
    <path d="M390 585 c-26 -32 13 -81 48 -59 22 14 27 41 12 59 -16 19 -44 19
-60 0z"/>
  </g>
</svg>
