<?xml version="1.0" standalone="no"?>
<!DOCTYPE svg PUBLIC "-//W3C//DTD SVG 20010904//EN"
        "http://www.w3.org/TR/2001/REC-SVG-20010904/DTD/svg10.dtd">
<svg version="1.0" xmlns="http://www.w3.org/2000/svg"
     width="100.000000pt" height="100.000000pt" viewBox="0 0 100.000000 100.000000"
     preserveAspectRatio="xMidYMid meet">

  <g transform="translate(0.000000,100.000000) scale(0.100000,-0.100000)"
     fill="#000000" stroke="none">
    <path d="M132 992 c-8 -5 -36 -142 -72 -358 -52 -304 -60 -366 -60 -479 0 -89
4 -135 12 -143 17 -17 959 -17 976 0 8 8 12 53 12 138 0 106 -9 179 -60 479
-37 222 -64 357 -72 362 -17 11 -719 11 -736 1z m762 -324 c26 -161 50 -305
53 -320 l5 -28 -452 0 -452 0 5 28 c3 15 27 159 53 320 l49 292 345 0 345 0
49 -292z m66 -508 l0 -120 -460 0 -460 0 0 120 0 120 460 0 460 0 0 -120z"/>
    <path d="M140 150 l0 -50 270 0 270 0 0 50 c0 43 -3 50 -20 50 -16 0 -20 -7
-20 -30 0 -27 -3 -30 -30 -30 -27 0 -30 3 -30 30 0 23 -4 30 -20 30 -16 0 -20
-7 -20 -30 0 -27 -3 -30 -30 -30 -27 0 -30 3 -30 30 0 23 -4 30 -20 30 -16 0
-20 -7 -20 -30 0 -27 -3 -30 -30 -30 -27 0 -30 3 -30 30 0 23 -4 30 -20 30
-16 0 -20 -7 -20 -30 0 -27 -3 -30 -30 -30 -27 0 -30 3 -30 30 0 23 -4 30 -20
30 -16 0 -20 -7 -20 -30 0 -27 -3 -30 -30 -30 -27 0 -30 3 -30 30 0 23 -4 30
-20 30 -17 0 -20 -7 -20 -50z"/>
    <path d="M790 185 c-15 -18 -10 -45 13 -59 34 -22 73 27 47 59 -16 19 -44 19
-60 0z"/>
  </g>
</svg>
