<?xml version="1.0" standalone="no"?>
<!DOCTYPE svg PUBLIC "-//W3C//DTD SVG 20010904//EN"
        "http://www.w3.org/TR/2001/REC-SVG-20010904/DTD/svg10.dtd">
<svg version="1.0" xmlns="http://www.w3.org/2000/svg"
     width="100.000000pt" height="100.000000pt" viewBox="0 0 100.000000 100.000000"
     preserveAspectRatio="xMidYMid meet">

  <g transform="translate(0.000000,100.000000) scale(0.100000,-0.100000)"
     fill="#000000" stroke="none">
    <path d="M155 911 c-11 -5 -31 -21 -45 -36 l-25 -27 0 -349 0 -349 33 -32 32
-33 350 0 350 0 32 33 33 32 0 350 0 350 -33 32 -32 33 -338 2 c-185 1 -346
-2 -357 -6z m700 -56 l25 -24 0 -331 0 -331 -25 -24 -24 -25 -331 0 -331 0
-24 25 -25 24 0 331 0 331 25 24 24 25 331 0 331 0 24 -25z"/>
    <path d="M406 764 c-70 -22 -149 -103 -170 -174 -33 -112 -11 -206 67 -284
207 -206 544 -3 463 279 -14 45 -29 69 -70 110 -80 80 -178 103 -290 69z m168
-36 c86 -26 166 -136 166 -228 0 -124 -116 -240 -240 -240 -124 0 -240 116
-240 240 0 63 23 114 75 165 70 71 145 90 239 63z"/>
    <path d="M425 663 c-44 -23 -65 -44 -86 -85 -45 -87 -8 -193 83 -239 115 -59
258 30 258 161 0 44 -26 105 -56 131 -56 49 -141 63 -199 32z m154 -50 c85
-63 75 -186 -20 -236 -92 -49 -208 33 -195 137 12 104 133 159 215 99z"/>
  </g>
</svg>
